<svg width="32" height="32" xmlns="http://www.w3.org/2000/svg">

 <title/>
 <g>
  <title>background</title>
  <rect fill="none" id="canvas_background" height="402" width="582" y="-1" x="-1"/>
 </g>
 <g>
  <title>Layer 1</title>
  <path fill="#05a834" id="svg_1" d="m28,24l-24,0a3,3 0 0 1 -3,-3l0,-16a3,3 0 0 1 3,-3l24,0a3,3 0 0 1 3,3l0,16a3,3 0 0 1 -3,3zm-24,-20a1,1 0 0 0 -1,1l0,16a1,1 0 0 0 1,1l24,0a1,1 0 0 0 1,-1l0,-16a1,1 0 0 0 -1,-1l-24,0z" class="cls-1"/>
  <path fill="#05a834" id="svg_2" d="m21,30l-10,0a1,1 0 0 1 -1,-1.16l1,-6a1,1 0 0 1 1,-0.84l8,0a1,1 0 0 1 1,0.84l1,6a1,1 0 0 1 -1,1.16zm-8.82,-2l7.64,0l-0.67,-4l-6.3,0l-0.67,4z" class="cls-1"/>
  <path fill="#05a834" id="svg_3" d="m24,30l-16,0a1,1 0 0 1 0,-2l16,0a1,1 0 0 1 0,2z" class="cls-1"/>
  <path fill="#05a834" id="svg_4" d="m30,19l-28,0a1,1 0 0 1 0,-2l28,0a1,1 0 0 1 0,2z" class="cls-1"/>
 </g>
</svg>