<svg width="24" height="24" viewBox="0 0 24 24" fill="none" xmlns="http://www.w3.org/2000/svg">
<mask id="mask0_2184_210" style="mask-type:alpha" maskUnits="userSpaceOnUse" x="0" y="0" width="24" height="24">
<rect width="24" height="24" fill="#D9D9D9"/>
</mask>
<g mask="url(#mask0_2184_210)">
<path d="M11 17H7C6.71667 17 6.47917 16.9042 6.2875 16.7125C6.09583 16.5208 6 16.2833 6 16V13C6 12.45 6.19583 11.9792 6.5875 11.5875C6.97917 11.1958 7.45 11 8 11H10V9H7C6.71667 9 6.47917 8.90417 6.2875 8.7125C6.09583 8.52083 6 8.28333 6 8C6 7.71667 6.09583 7.47917 6.2875 7.2875C6.47917 7.09583 6.71667 7 7 7H10C10.55 7 11.0208 7.19583 11.4125 7.5875C11.8042 7.97917 12 8.45 12 9V11C12 11.55 11.8042 12.0208 11.4125 12.4125C11.0208 12.8042 10.55 13 10 13H8V15H11C11.2833 15 11.5208 15.0958 11.7125 15.2875C11.9042 15.4792 12 15.7167 12 16C12 16.2833 11.9042 16.5208 11.7125 16.7125C11.5208 16.9042 11.2833 17 11 17ZM17 13.675L15.25 16.575C15.1667 16.7083 15.0625 16.8125 14.9375 16.8875C14.8125 16.9625 14.675 17 14.525 17C14.1917 17 13.9375 16.8542 13.7625 16.5625C13.5875 16.2708 13.5917 15.9833 13.775 15.7L16 12L13.775 8.3C13.5917 8.01667 13.5875 7.72917 13.7625 7.4375C13.9375 7.14583 14.1917 7 14.525 7C14.675 7 14.8125 7.0375 14.9375 7.1125C15.0625 7.1875 15.1667 7.29167 15.25 7.425L17 10.325L18.75 7.425C18.8333 7.29167 18.9375 7.1875 19.0625 7.1125C19.1875 7.0375 19.325 7 19.475 7C19.8083 7 20.0625 7.14583 20.2375 7.4375C20.4125 7.72917 20.4083 8.01667 20.225 8.3L18 12L20.225 15.7C20.4083 15.9833 20.4125 16.2708 20.2375 16.5625C20.0625 16.8542 19.8083 17 19.475 17C19.325 17 19.1875 16.9625 19.0625 16.8875C18.9375 16.8125 18.8333 16.7083 18.75 16.575L17 13.675ZM4 17C3.71667 17 3.47917 16.9042 3.2875 16.7125C3.09583 16.5208 3 16.2833 3 16C3 15.7167 3.09583 15.4792 3.2875 15.2875C3.47917 15.0958 3.71667 15 4 15C4.28333 15 4.52083 15.0958 4.7125 15.2875C4.90417 15.4792 5 15.7167 5 16C5 16.2833 4.90417 16.5208 4.7125 16.7125C4.52083 16.9042 4.28333 17 4 17Z" fill="#019583"/>
</g>
</svg>
