<svg width="24" height="24" viewBox="0 0 24 24" fill="none" xmlns="http://www.w3.org/2000/svg">
<mask id="mask0_2184_204" style="mask-type:alpha" maskUnits="userSpaceOnUse" x="0" y="0" width="24" height="24">
<rect width="24" height="24" fill="#D9D9D9"/>
</mask>
<g mask="url(#mask0_2184_204)">
<path d="M17.5 18.5V20.5C17.5 20.6333 17.55 20.75 17.65 20.85C17.75 20.95 17.8667 21 18 21C18.1333 21 18.25 20.95 18.35 20.85C18.45 20.75 18.5 20.6333 18.5 20.5V18.5H20.5C20.6333 18.5 20.75 18.45 20.85 18.35C20.95 18.25 21 18.1333 21 18C21 17.8667 20.95 17.75 20.85 17.65C20.75 17.55 20.6333 17.5 20.5 17.5H18.5V15.5C18.5 15.3667 18.45 15.25 18.35 15.15C18.25 15.05 18.1333 15 18 15C17.8667 15 17.75 15.05 17.65 15.15C17.55 15.25 17.5 15.3667 17.5 15.5V17.5H15.5C15.3667 17.5 15.25 17.55 15.15 17.65C15.05 17.75 15 17.8667 15 18C15 18.1333 15.05 18.25 15.15 18.35C15.25 18.45 15.3667 18.5 15.5 18.5H17.5ZM18 23C16.6167 23 15.4375 22.5125 14.4625 21.5375C13.4875 20.5625 13 19.3833 13 18C13 16.6167 13.4875 15.4375 14.4625 14.4625C15.4375 13.4875 16.6167 13 18 13C19.3833 13 20.5625 13.4875 21.5375 14.4625C22.5125 15.4375 23 16.6167 23 18C23 19.3833 22.5125 20.5625 21.5375 21.5375C20.5625 22.5125 19.3833 23 18 23ZM8 9H16C16.2833 9 16.5208 8.90417 16.7125 8.7125C16.9042 8.52083 17 8.28333 17 8C17 7.71667 16.9042 7.47917 16.7125 7.2875C16.5208 7.09583 16.2833 7 16 7H8C7.71667 7 7.47917 7.09583 7.2875 7.2875C7.09583 7.47917 7 7.71667 7 8C7 8.28333 7.09583 8.52083 7.2875 8.7125C7.47917 8.90417 7.71667 9 8 9ZM5 21C4.45 21 3.97917 20.8042 3.5875 20.4125C3.19583 20.0208 3 19.55 3 19V5C3 4.45 3.19583 3.97917 3.5875 3.5875C3.97917 3.19583 4.45 3 5 3H19C19.55 3 20.0208 3.19583 20.4125 3.5875C20.8042 3.97917 21 4.45 21 5V10.45C21 10.75 20.875 10.9833 20.625 11.15C20.375 11.3167 20.1083 11.35 19.825 11.25C19.5417 11.1667 19.2458 11.1042 18.9375 11.0625C18.6292 11.0208 18.3167 11 18 11C17.8167 11 17.6458 11.0042 17.4875 11.0125C17.3292 11.0208 17.1667 11.0417 17 11.075C16.85 11.0417 16.6833 11.0208 16.5 11.0125C16.3167 11.0042 16.15 11 16 11H8C7.71667 11 7.47917 11.0958 7.2875 11.2875C7.09583 11.4792 7 11.7167 7 12C7 12.2833 7.09583 12.5208 7.2875 12.7125C7.47917 12.9042 7.71667 13 8 13H13.125C12.825 13.2833 12.5542 13.5917 12.3125 13.925C12.0708 14.2583 11.8583 14.6167 11.675 15H8C7.71667 15 7.47917 15.0958 7.2875 15.2875C7.09583 15.4792 7 15.7167 7 16C7 16.2833 7.09583 16.5208 7.2875 16.7125C7.47917 16.9042 7.71667 17 8 17H11.075C11.0417 17.1667 11.0208 17.3292 11.0125 17.4875C11.0042 17.6458 11 17.8167 11 18C11 18.3333 11.0167 18.65 11.05 18.95C11.0833 19.25 11.1417 19.5417 11.225 19.825C11.3083 20.1083 11.2667 20.375 11.1 20.625C10.9333 20.875 10.7083 21 10.425 21H5Z" fill="#019583"/>
</g>
</svg>
