<svg id="Layer_2" data-name="Layer 2" xmlns="http://www.w3.org/2000/svg" xmlns:xlink="http://www.w3.org/1999/xlink" viewBox="0 0 1043 336"><defs><style>.cls-1{fill:#cecece;}.cls-2,.cls-21,.cls-22{fill:none;stroke:#cecece;stroke-miterlimit:10;stroke-width:2px;}.cls-14,.cls-3{font-size:16px;fill:#474747;}.cls-14,.cls-3,.cls-4{font-family:Ubuntu-Medium, Ubuntu;}.cls-16,.cls-3{letter-spacing:-0.03em;}.cls-4{font-size:11px;fill:#9b9b9b;letter-spacing:-0.02em;}.cls-5{letter-spacing:-0.04em;}.cls-6{letter-spacing:-0.03em;}.cls-7{letter-spacing:-0.04em;}.cls-8{letter-spacing:-0.04em;}.cls-9{letter-spacing:-0.04em;}.cls-10{letter-spacing:-0.04em;}.cls-11{letter-spacing:-0.08em;}.cls-12{letter-spacing:-0.04em;}.cls-13{letter-spacing:-0.02em;}.cls-14{letter-spacing:-0.05em;}.cls-15{letter-spacing:-0.03em;}.cls-17{letter-spacing:-0.05em;}.cls-18{letter-spacing:-0.03em;}.cls-19{letter-spacing:-0.03em;}.cls-20{letter-spacing:-0.04em;}.cls-21,.cls-22{stroke-linecap:round;}.cls-22{stroke-dasharray:4 4;}</style></defs><title>processTimeline</title><circle class="cls-1" cx="7.5" cy="155.5" r="7.5"/><circle class="cls-1" cx="1035.5" cy="155.5" r="7.5"/><line class="cls-2" x1="7" y1="155" x2="1036" y2="155"/><text class="cls-3" transform="translate(115 31.83)">Research</text><text class="cls-4" transform="translate(115.33 53.54)">- Qualitati<tspan class="cls-5" x="48.3" y="0">v</tspan><tspan class="cls-6" x="53.68" y="0">e analysis</tspan><tspan x="0" y="13.2">- </tspan><tspan class="cls-7" x="5.48" y="13.2">C</tspan><tspan x="12.08" y="13.2">ompeti</tspan><tspan class="cls-5" x="46.99" y="13.2">t</tspan><tspan x="51.18" y="13.2">or analysis</tspan><tspan x="0" y="26.4">- </tspan><tspan class="cls-7" x="5.48" y="26.4">C</tspan><tspan x="12.08" y="26.4">ompa</tspan><tspan class="cls-8" x="39.5" y="26.4">n</tspan><tspan x="45.49" y="26.4">y culture</tspan></text><text class="cls-3" transform="translate(238 252.83)">Define</text><text class="cls-4" transform="translate(238.33 274.54)">- Product requirements<tspan x="0" y="13.2">- User research</tspan><tspan x="0" y="26.4">- </tspan><tspan class="cls-9" x="5.48" y="26.4">W</tspan><tspan x="15.31" y="26.4">orkfl</tspan><tspan class="cls-10" x="39.02" y="26.4">o</tspan><tspan x="45.2" y="26.4">w</tspan><tspan x="0" y="39.6">- </tspan><tspan class="cls-11" x="5.48" y="39.6">T</tspan><tspan x="10.97" y="39.6">ool kit de</tspan><tspan class="cls-5" x="56.3" y="39.6">v</tspan><tspan x="61.68" y="39.6">elopment</tspan></text><image width="64" height="64" transform="translate(162 221)" xlink:href="../../../../../../Downloads/vivovii_internship/processTimeline/if_multimedia-42_2849794.png"/><text class="cls-3" transform="translate(404 31.83)">Design</text><text class="cls-4" transform="translate(404.33 53.54)">- Wireframing<tspan x="0" y="13.2">- Pro</tspan><tspan class="cls-5" x="22.52" y="13.2">t</tspan><tspan x="26.71" y="13.2">otyping</tspan><tspan x="0" y="26.4">- Design Meetings</tspan></text><image width="64" height="64" transform="translate(328)" xlink:href="../../../../../../Downloads/vivovii_internship/processTimeline/if_multimedia-16_2849820.png"/><text class="cls-3" transform="translate(567 252.83)">De<tspan class="cls-12" x="19.95" y="0">v</tspan><tspan class="cls-13" x="27.78" y="0">elopment</tspan></text><text class="cls-4" transform="translate(567.33 274.54)">- <tspan class="cls-9" x="5.48" y="0">W</tspan><tspan x="15.31" y="0">ordpress implementation</tspan><tspan x="0" y="13.2">- </tspan><tspan class="cls-7" x="5.48" y="13.2">C</tspan><tspan x="12.08" y="13.2">ontrol panel familiarity</tspan><tspan x="0" y="26.4">- De</tspan><tspan class="cls-5" x="19.19" y="26.4">v</tspan><tspan x="24.57" y="26.4">elop design</tspan></text><text class="cls-14" transform="translate(726 31.83)">E<tspan class="cls-13" x="8.62" y="0">valua</tspan><tspan class="cls-15" x="46.21" y="0">t</tspan><tspan class="cls-16" x="52.35" y="0">e</tspan></text><text class="cls-4" transform="translate(726.33 53.54)">- <tspan class="cls-11" x="5.48" y="0">T</tspan><tspan x="10.97" y="0">eam critique</tspan><tspan x="0" y="13.2">- Sta</tspan><tspan class="cls-17" x="21.06" y="13.2">k</tspan><tspan x="26.6" y="13.2">eholders critique</tspan><tspan x="0" y="26.4">- I</tspan><tspan class="cls-18" x="8.41" y="26.4">t</tspan><tspan x="12.64" y="26.4">era</tspan><tspan class="cls-19" x="28.4" y="26.4">t</tspan><tspan x="32.63" y="26.4">e design</tspan></text><image width="64" height="64" transform="translate(650)" xlink:href="../../../../../../Downloads/vivovii_internship/processTimeline/if_multimedia-23_2849813.png"/><image width="64" height="64" transform="translate(488 225)" xlink:href="../../../../../../Downloads/vivovii_internship/processTimeline/if_multimedia-37_2849799.png"/><text class="cls-3" transform="translate(870 252.83)">Deli<tspan class="cls-12" x="28.32" y="0">v</tspan><tspan class="cls-13" x="36.14" y="0">er</tspan></text><text class="cls-4" transform="translate(870.33 274.54)">- <tspan class="cls-7" x="5.48" y="0">C</tspan><tspan x="12.08" y="0">ompa</tspan><tspan class="cls-8" x="39.5" y="0">n</tspan><tspan x="45.48" y="0">y - wide pi</tspan><tspan class="cls-20" x="93.37" y="0">t</tspan><tspan x="97.57" y="0">ch</tspan><tspan x="0" y="13.2">- De</tspan><tspan class="cls-5" x="19.19" y="13.2">v</tspan><tspan x="24.57" y="13.2">elopment/Design handoff</tspan><tspan x="0" y="26.4">- Main</tspan><tspan class="cls-18" x="29.45" y="26.4">t</tspan><tspan class="cls-6" x="33.67" y="26.4">enance</tspan></text><image width="64" height="64" transform="translate(798 225)" xlink:href="../../../../../../Downloads/vivovii_internship/processTimeline/if_multimedia-18_2849818.png"/><line class="cls-21" x1="133" y1="107" x2="133" y2="109"/><line class="cls-22" x1="133" y1="113" x2="133" y2="151"/><line class="cls-21" x1="133" y1="153" x2="133" y2="155"/><line class="cls-21" x1="274" y1="156" x2="274" y2="158"/><line class="cls-22" x1="274" y1="162" x2="274" y2="200"/><line class="cls-21" x1="274" y1="202" x2="274" y2="204"/><line class="cls-21" x1="422" y1="107" x2="422" y2="109"/><line class="cls-22" x1="422" y1="113" x2="422" y2="151"/><line class="cls-21" x1="422" y1="153" x2="422" y2="155"/><line class="cls-21" x1="596" y1="157" x2="596" y2="159"/><line class="cls-22" x1="596" y1="163" x2="596" y2="201"/><line class="cls-21" x1="596" y1="203" x2="596" y2="205"/><line class="cls-21" x1="746" y1="107" x2="746" y2="109"/><line class="cls-22" x1="746" y1="113" x2="746" y2="151"/><line class="cls-21" x1="746" y1="153" x2="746" y2="155"/><line class="cls-21" x1="891" y1="158" x2="891" y2="160"/><line class="cls-22" x1="891" y1="164" x2="891" y2="202"/><line class="cls-21" x1="891" y1="204" x2="891" y2="206"/><image width="64" height="64" transform="translate(41)" xlink:href="../../../../../../Downloads/2849804-64.png"/></svg>