<svg id="Layer_1" data-name="Layer 1" xmlns="http://www.w3.org/2000/svg" viewBox="0 0 435 190.76"><defs><style>.cls-1{opacity:0.32;}.cls-2{fill:#e8e8e8;}.cls-3{fill:#b2b2b2;}.cls-4{fill:#c4c4c4;}.cls-5{fill:#f4f4f4;}.cls-13,.cls-6,.cls-8{fill:#4284c6;}.cls-10,.cls-11,.cls-21,.cls-22,.cls-25,.cls-26,.cls-28,.cls-29,.cls-31,.cls-6,.cls-8,.cls-9{stroke:#333;}.cls-10,.cls-11,.cls-21,.cls-25,.cls-26,.cls-28,.cls-29,.cls-6,.cls-8,.cls-9{stroke-miterlimit:10;}.cls-10,.cls-11,.cls-25,.cls-28,.cls-31,.cls-6,.cls-9{stroke-width:2px;}.cls-7{fill:#8ebbe8;opacity:0.34;}.cls-25,.cls-27,.cls-31,.cls-9{fill:none;}.cls-10{fill:#d8d8d8;}.cls-11{fill:#565656;}.cls-12{opacity:0.65;}.cls-14{fill:#3e80b7;}.cls-15{fill:#2b2b2b;}.cls-16{fill:#dbdbdb;}.cls-17{fill:#ff4545;}.cls-18,.cls-19,.cls-20{fill:#0c0c0c;}.cls-18{opacity:0.6;}.cls-19{opacity:0.4;}.cls-20{opacity:0.1;}.cls-21,.cls-24{fill:#ffe161;}.cls-22{fill:#ffe783;}.cls-22,.cls-31{stroke-linecap:round;stroke-linejoin:round;}.cls-23,.cls-29{fill:#ffe36c;}.cls-25{opacity:0.2;}.cls-26,.cls-28{fill:#ffeb97;}.cls-30{fill:#c6b25c;opacity:0.39;}.cls-32,.cls-33{fill:#dbc052;}.cls-33{opacity:0.43;}</style></defs><title>404 Page R2D2 + C3PO</title><g class="cls-1"><rect class="cls-2" x="239.09" y="242.57" width="120.1" height="22.26" rx="11.13" ry="11.13" transform="translate(566.11 370.58) rotate(180)"/><rect class="cls-3" x="193.15" y="73.54" width="44.87" height="22.26" rx="11.13" ry="11.13"/><rect class="cls-2" y="73.93" width="164.97" height="22.26" rx="11.13" ry="11.13"/><rect class="cls-3" x="261.98" y="173" width="44.87" height="22.26" rx="11.13" ry="11.13" transform="translate(536.66 231.43) rotate(-180)"/><rect class="cls-3" x="81.78" y="173" width="44.87" height="22.26" rx="11.13" ry="11.13" transform="translate(176.25 231.43) rotate(-180)"/><rect class="cls-4" x="334.93" y="173" width="132.23" height="22.26" rx="11.13" ry="11.13" transform="translate(769.93 231.43) rotate(-180)"/><rect class="cls-4" x="145.98" y="173" width="96.48" height="22.26" rx="11.13" ry="11.13" transform="translate(356.27 231.43) rotate(180)"/><rect class="cls-4" x="297.45" y="210.37" width="88.46" height="22.26" rx="11.13" ry="11.13" transform="translate(651.2 306.17) rotate(180)"/><rect class="cls-2" x="104.58" y="275.57" width="145.18" height="22.26" rx="11.13" ry="11.13" transform="translate(322.17 436.57) rotate(-180)"/><rect class="cls-3" x="29" y="105.74" width="44.87" height="22.26" rx="11.13" ry="11.13"/><rect class="cls-2" x="128.92" y="242.18" width="90.19" height="22.26" rx="11.13" ry="11.13" transform="translate(315.87 369.78) rotate(180)"/><rect class="cls-4" x="278.21" y="274.77" width="168.25" height="22.26" rx="11.13" ry="11.13" transform="translate(692.51 434.98) rotate(180)"/><rect class="cls-3" x="350.74" y="105.34" width="44.87" height="22.26" rx="11.13" ry="11.13"/></g><path class="cls-5" d="M261.83,311.92c.26-2.62.39-5.28.39-8,0-44-35.32-79.69-78.89-79.69s-78.89,35.68-78.89,79.69c0,2.69.14,5.35.39,8Z" transform="translate(-32.17 -136.83)"/><path class="cls-6" d="M186.5,245h48.33c-9.73-11.67-27.6-19.74-48.33-20.58Z" transform="translate(-32.17 -136.83)"/><path class="cls-6" d="M179.5,224.39c-20.79.8-38.73,8.88-48.49,20.58H179.5Z" transform="translate(-32.17 -136.83)"/><path class="cls-7" d="M186.5,224.39c31.37,0,56.75,38.45,56.75,86h18.64l.14-12.06L260.44,287,254,267.38,243.41,252.3l-16.16-14.87-15.92-8.75L201,226.22Z" transform="translate(-32.17 -136.83)"/><rect class="cls-8" x="216.81" y="157.47" width="3.85" height="15.17"/><rect class="cls-8" x="205.81" y="157.47" width="7.36" height="15.17"/><path class="cls-9" d="M261.83,311.92c.26-2.62.39-5.28.39-8,0-44-35.32-79.69-78.89-79.69s-78.89,35.68-78.89,79.69c0,2.69.14,5.35.39,8Z" transform="translate(-32.17 -136.83)"/><rect class="cls-10" x="71.94" y="173.53" width="157.78" height="15.94"/><polygon class="cls-6" points="134.33 115.47 168.33 115.47 168.33 146.47 122.33 146.47 134.33 115.47"/><circle class="cls-11" cx="182.25" cy="160.3" r="11"/><circle class="cls-12" cx="184.62" cy="162.51" r="5.46"/><rect class="cls-13" x="169.33" y="115" width="4.07" height="24"/><rect class="cls-5" x="168.21" y="118" width="4.59" height="2"/><rect class="cls-5" x="168.21" y="134" width="4.59" height="2"/><rect class="cls-6" x="72.98" y="157.47" width="23" height="15.17"/><rect class="cls-8" x="101.82" y="157.47" width="3.85" height="15.17"/><rect class="cls-8" x="109.82" y="157.47" width="3.85" height="15.17"/><rect class="cls-8" x="198.81" y="157.47" width="3.85" height="15.17"/><rect class="cls-8" x="117.65" y="163.97" width="8.67" height="8.67"/><rect class="cls-6" x="133.5" y="152.8" width="31" height="19.83"/><rect class="cls-14" x="153.33" y="116.47" width="13.97" height="29.03"/><rect class="cls-14" x="81.07" y="158.47" width="13.93" height="13.13"/><rect class="cls-14" x="149.57" y="153.8" width="13.97" height="17.88"/><circle class="cls-15" cx="143.33" cy="128.47" r="11"/><circle class="cls-16" cx="147.33" cy="124.47" r="4"/><circle class="cls-17" cx="149.73" cy="162.72" r="6.33"/><circle class="cls-18" cx="118.62" cy="116.3" r="2"/><circle class="cls-19" cx="111.71" cy="116.3" r="2"/><circle class="cls-20" cx="104.79" cy="116.3" r="2"/><circle class="cls-18" cx="100.75" cy="122.39" r="2"/><circle class="cls-19" cx="107.67" cy="122.39" r="2"/><circle class="cls-20" cx="114.58" cy="122.39" r="2"/><circle class="cls-18" cx="211.11" cy="135.36" r="2"/><circle class="cls-19" cx="204.19" cy="135.36" r="2"/><circle class="cls-20" cx="197.28" cy="135.36" r="2"/><circle class="cls-18" cx="190.36" cy="141.45" r="2"/><circle class="cls-20" cx="197.28" cy="141.45" r="2"/><circle class="cls-20" cx="204.19" cy="141.45" r="2"/><circle class="cls-20" cx="93.4" cy="147.5" r="2"/><circle class="cls-20" cx="100.32" cy="147.5" r="2"/><circle class="cls-20" cx="98.36" cy="141.45" r="2"/><circle class="cls-20" cx="105.28" cy="141.45" r="2"/><circle class="cls-18" cx="162.42" cy="99.84" r="2"/><circle class="cls-20" cx="169.33" cy="99.84" r="2"/><polygon class="cls-21" points="352.5 141.13 357.5 141.13 357.5 158.13 355 166.63 347.63 166.63 347.63 158.88 351 141.13 352.5 141.13"/><polygon class="cls-21" points="257.75 141.13 252.75 141.13 252.75 158.13 255.25 166.63 262.63 166.63 262.63 158.88 259.25 141.13 257.75 141.13"/><path class="cls-22" d="M336.92,137.33a18.15,18.15,0,0,0-8.75,4.5,55.42,55.42,0,0,1-8.83,6.5s-29,2.83-40,35.83a135,135,0,0,0-4.5,39.17l-2.5,5.5,4.5,25.83,5.75,3.33L286,274.2l4.5,3,3.5,20,9.42-1.64,33.5-138Z" transform="translate(-32.17 -136.83)"/><path class="cls-22" d="M337.25,137.33a18.15,18.15,0,0,1,8.75,4.5,55.42,55.42,0,0,0,8.83,6.5s29,2.83,40,35.83a135,135,0,0,1,4.5,39.17l2.5,5.5-4.5,25.83L391.58,258l-3.41,16.2-4.5,3-3.5,20-9.42-1.64-33.5-138Z" transform="translate(-32.17 -136.83)"/><circle class="cls-22" cx="304.92" cy="7" r="3.42"/><circle class="cls-23" cx="280.87" cy="92.87" r="13.13"/><path class="cls-24" d="M303.42,301.89s-64.5-149.05,33.5-151.3,33.5,151.3,33.5,151.3S340.17,333.19,303.42,301.89Z" transform="translate(-32.17 -136.83)"/><path class="cls-25" d="M303.42,301.89s-64.5-149.05,33.5-151.3,33.5,151.3,33.5,151.3S340.17,333.19,303.42,301.89Z" transform="translate(-32.17 -136.83)"/><circle class="cls-26" cx="280.87" cy="92.87" r="23.19"/><circle class="cls-26" cx="329" cy="92.87" r="23.19"/><circle class="cls-23" cx="329" cy="92.87" r="13.13"/><circle class="cls-15" cx="329" cy="92.88" r="2.88"/><path class="cls-27" d="M370.56,220.55a13.14,13.14,0,0,0-3.79-2.7v23.71a13.14,13.14,0,0,0,3.79-2.7Z" transform="translate(-32.17 -136.83)"/><path class="cls-27" d="M361.77,216.61V242.8a13.06,13.06,0,0,0,3.79-.74V217.35A13.06,13.06,0,0,0,361.77,216.61Z" transform="translate(-32.17 -136.83)"/><path class="cls-27" d="M351.77,220.55v18.31a13.14,13.14,0,0,0,3.79,2.7V217.85A13.14,13.14,0,0,0,351.77,220.55Z" transform="translate(-32.17 -136.83)"/><path class="cls-27" d="M374.29,229.71a13,13,0,0,0-2.52-7.71v15.42A13,13,0,0,0,374.29,229.71Z" transform="translate(-32.17 -136.83)"/><path class="cls-27" d="M356.77,217.35v24.71a13.06,13.06,0,0,0,3.79.74V216.61A13.06,13.06,0,0,0,356.77,217.35Z" transform="translate(-32.17 -136.83)"/><path class="cls-27" d="M348,229.71a13,13,0,0,0,2.52,7.71V222A13,13,0,0,0,348,229.71Z" transform="translate(-32.17 -136.83)"/><path class="cls-15" d="M350.56,222v15.42a13.18,13.18,0,0,0,1.21,1.44V220.55A13.19,13.19,0,0,0,350.56,222Z" transform="translate(-32.17 -136.83)"/><path class="cls-15" d="M355.56,217.85v23.71a13,13,0,0,0,1.21.5V217.35A13,13,0,0,0,355.56,217.85Z" transform="translate(-32.17 -136.83)"/><path class="cls-15" d="M361.17,216.58c-.2,0-.4,0-.6,0V242.8c.2,0,.4,0,.6,0s.4,0,.6,0V216.61C361.57,216.6,361.37,216.58,361.17,216.58Z" transform="translate(-32.17 -136.83)"/><path class="cls-15" d="M365.56,217.35v24.71a13,13,0,0,0,1.21-.5V217.85A13,13,0,0,0,365.56,217.35Z" transform="translate(-32.17 -136.83)"/><path class="cls-15" d="M371.77,237.42V222a13.19,13.19,0,0,0-1.21-1.44v18.31A13.18,13.18,0,0,0,371.77,237.42Z" transform="translate(-32.17 -136.83)"/><rect class="cls-28" x="293.37" y="139.13" width="21.88" height="6.5"/><polygon class="cls-29" points="304.75 121.88 315.88 131.13 304.94 117.88 292.74 130.38 304.75 121.88"/><polygon class="cls-21" points="281.38 175.47 287.26 177.35 267.25 142.18 281.38 175.47"/><polygon class="cls-21" points="327.24 175.47 321.36 177.35 341.37 142.18 327.24 175.47"/><circle class="cls-18" cx="340.86" cy="57" r="2"/><circle class="cls-20" cx="340.86" cy="50.08" r="2"/><circle class="cls-20" cx="340.86" cy="43.17" r="2"/><circle class="cls-18" cx="334" cy="32.25" r="2"/><circle class="cls-20" cx="334" cy="39.17" r="2"/><circle class="cls-20" cx="334" cy="46.08" r="2"/><circle class="cls-18" cx="277.25" cy="44.62" r="2"/><circle class="cls-20" cx="277.25" cy="37.71" r="2"/><circle class="cls-18" cx="271.48" cy="49.54" r="2"/><circle class="cls-20" cx="271.48" cy="42.63" r="2"/><circle class="cls-20" cx="323.4" cy="145.64" r="2"/><circle class="cls-20" cx="323.4" cy="138.72" r="2"/><circle class="cls-20" cx="329.6" cy="140.18" r="2"/><circle class="cls-20" cx="329.6" cy="133.26" r="2"/><circle class="cls-18" cx="285.27" cy="135.46" r="2"/><circle class="cls-20" cx="285.27" cy="142.38" r="2"/><circle class="cls-20" cx="285.27" cy="149.29" r="2"/><circle class="cls-18" cx="279.25" cy="145.64" r="2"/><circle class="cls-20" cx="279.25" cy="138.72" r="2"/><circle class="cls-20" cx="279.25" cy="131.8" r="2"/><circle class="cls-18" cx="314.35" cy="46.35" r="2"/><circle class="cls-20" cx="307.44" cy="46.35" r="2"/><circle class="cls-20" cx="300.52" cy="46.35" r="2"/><circle class="cls-18" cx="297.27" cy="39.98" r="2"/><circle class="cls-20" cx="304.19" cy="39.98" r="2"/><circle class="cls-20" cx="311.1" cy="39.98" r="2"/><path class="cls-30" d="M343.7,315.29s77-139.34,5-164.15c8.76.95,12.4,2.91,12.4,2.91L373,160.67l8.8,9.78,5.55,11.78,3.2,15,.69,13-1.32,19.5-3.22,18.93-5.43,21.62-7.86,23.91-3.88,8.56L362.61,308l-8.42,4.37Z" transform="translate(-32.17 -136.83)"/><path class="cls-31" d="M303.42,301.89s-64.5-149.05,33.5-151.3,33.5,151.3,33.5,151.3S340.17,333.19,303.42,301.89Z" transform="translate(-32.17 -136.83)"/><path class="cls-10" d="M303.42,301.17v25.43h67V301.17S338.42,326.13,303.42,301.17Z" transform="translate(-32.17 -136.83)"/><rect class="cls-32" x="305.5" y="140.17" width="8.83" height="4.5"/><path class="cls-33" d="M313.32,207.08h0v45.25h0a22.63,22.63,0,0,0,0-45.25Z" transform="translate(-32.17 -136.83)"/><circle class="cls-23" cx="280.87" cy="92.87" r="13.13"/><circle class="cls-15" cx="280.87" cy="92.88" r="2.88"/><path class="cls-27" d="M322.44,220.55a13.14,13.14,0,0,0-3.79-2.7v23.71a13.14,13.14,0,0,0,3.79-2.7Z" transform="translate(-32.17 -136.83)"/><path class="cls-27" d="M313.65,216.61V242.8a13.06,13.06,0,0,0,3.79-.74V217.35A13.06,13.06,0,0,0,313.65,216.61Z" transform="translate(-32.17 -136.83)"/><path class="cls-27" d="M303.65,220.55v18.31a13.14,13.14,0,0,0,3.79,2.7V217.85A13.14,13.14,0,0,0,303.65,220.55Z" transform="translate(-32.17 -136.83)"/><path class="cls-27" d="M326.17,229.71a13,13,0,0,0-2.52-7.71v15.42A13,13,0,0,0,326.17,229.71Z" transform="translate(-32.17 -136.83)"/><path class="cls-27" d="M308.65,217.35v24.71a13.06,13.06,0,0,0,3.79.74V216.61A13.06,13.06,0,0,0,308.65,217.35Z" transform="translate(-32.17 -136.83)"/><path class="cls-27" d="M299.92,229.71a13,13,0,0,0,2.52,7.71V222A13,13,0,0,0,299.92,229.71Z" transform="translate(-32.17 -136.83)"/><path class="cls-15" d="M302.44,222v15.42a13.18,13.18,0,0,0,1.21,1.44V220.55A13.19,13.19,0,0,0,302.44,222Z" transform="translate(-32.17 -136.83)"/><path class="cls-15" d="M307.44,217.85v23.71a13,13,0,0,0,1.21.5V217.35A13,13,0,0,0,307.44,217.85Z" transform="translate(-32.17 -136.83)"/><path class="cls-15" d="M313,216.58c-.2,0-.4,0-.6,0V242.8c.2,0,.4,0,.6,0s.4,0,.6,0V216.61C313.44,216.6,313.25,216.58,313,216.58Z" transform="translate(-32.17 -136.83)"/><path class="cls-15" d="M317.44,217.35v24.71a13,13,0,0,0,1.21-.5V217.85A13,13,0,0,0,317.44,217.35Z" transform="translate(-32.17 -136.83)"/><path class="cls-15" d="M323.65,237.42V222a13.19,13.19,0,0,0-1.21-1.44v18.31A13.18,13.18,0,0,0,323.65,237.42Z" transform="translate(-32.17 -136.83)"/><path class="cls-33" d="M361.57,207.08h0v45.25h0a22.63,22.63,0,0,0,0-45.25Z" transform="translate(-32.17 -136.83)"/></svg>