<?xml version="1.0" encoding="utf-8"?>
<!-- Generator: Adobe Illustrator 21.1.0, SVG Export Plug-In . SVG Version: 6.00 Build 0)  -->
<svg version="1.1" id="Layer_1" xmlns="http://www.w3.org/2000/svg" xmlns:xlink="http://www.w3.org/1999/xlink" x="0px" y="0px"
	 viewBox="0 0 2500 2500" style="enable-background:new 0 0 2500 2500;" xml:space="preserve">
<style type="text/css">
	.st0{fill:none;stroke:#666666;stroke-width:6;stroke-linecap:round;stroke-miterlimit:10;}
	.st1{fill:#FF4848;}
	.st2{fill:#65FF4A;}
	.st3{fill:#FFF250;}
	.st4{fill:#4D63FF;}
</style>
<g>
	<path class="st0" d="M356.2,825.6c0,0-20.6,2-15.4,18.1s-19,22.4-19,22.4"/>
	<path class="st1" d="M398.8,776.1c18.5,21,4,41.3-7.1,47.1c-24,11.7-35.7,3.3-35.7,3.3l0,0c0,0-10.2-10.2-2.5-35.8
		C357.4,778.7,375.2,761.2,398.8,776.1"/>
</g>
<g>
	<path class="st0" d="M1709,921c0,0-14.4,14.9,0,23.8c14.4,8.9,0,29.4,0,29.4"/>
	<path class="st2" d="M1709.4,855.6c27.7,4,29.8,28.8,25.1,40.5c-10.7,24.5-25.1,25.7-25.1,25.7l0,0c0,0-14.4-1.2-25.1-25.7
		C1679.6,884.5,1681.7,859.7,1709.4,855.6"/>
</g>
<g>
	<path class="st0" d="M392.7,1395.9c0,0-3.4,9.9,5.1,10.9s6.3,13.5,6.3,13.5"/>
	<path class="st1" d="M378.8,1365.8c13.6-4.1,19.9,6.8,20.2,13.2c0.4,13.5-6,17.2-6,17.2l0,0c0,0-6.9,2.5-17-6.4
		C371.3,1385.4,367,1373.6,378.8,1365.8"/>
</g>
<g>
	<path class="st0" d="M2277.7,366c0,0,1.1,11.3,9.9,8.4s12.3,10.4,12.3,10.4"/>
	<path class="st1" d="M2250.6,342.6c11.5-10.1,22.6-2.2,25.8,3.9c6.4,13.2,1.8,19.6,1.8,19.6l0,0c0,0-5.6,5.6-19.6,1.4
		C2252,365.3,2242.4,355.6,2250.6,342.6"/>
</g>
<g>
	<path class="st0" d="M1805.5,1770.1c0,0-7.2,8.8,1,13c8.3,4.2,1.3,16,1.3,16"/>
	<path class="st1" d="M1802.8,1734.3c15.3,1,17.6,14.4,15.5,21c-4.7,13.8-12.6,15.1-12.6,15.1l0,0c0,0-7.9,0-14.8-12.9
		C1787.8,1751.3,1787.8,1737.8,1802.8,1734.3"/>
</g>
<g>
	<path class="st0" d="M1556.5,1341.9c0,0-12.7,0.2-10.3,10.3s-12.7,12.7-12.7,12.7"/>
	<path class="st3" d="M1584.9,1313.8c10.2,13.7,0.4,25.4-6.7,28.4c-15.2,6-22,0.3-22,0.3l0,0c0,0-5.7-6.7,0.3-22
		C1559.5,1313.4,1571.2,1303.6,1584.9,1313.8"/>
</g>
<g>
	<path class="st0" d="M1301.9,2144.2c0,0-14.4,14.9,0,23.8s0,29.4,0,29.4"/>
	<path class="st3" d="M1302.3,2078.8c27.7,4,29.8,28.8,25.1,40.5c-10.7,24.5-25.1,25.7-25.1,25.7l0,0c0,0-14.4-1.2-25.1-25.7
		C1272.4,2107.7,1274.6,2082.9,1302.3,2078.8"/>
</g>
<g>
	<path class="st0" d="M345.1,279.3c0,0,0.2,14.1,11.5,11.5c11.2-2.7,14.2,14.2,14.2,14.2"/>
	<path class="st3" d="M313.7,247.6c15.3-11.4,28.3-0.5,31.6,7.4c6.7,17,0.3,24.5,0.3,24.5l0,0c0,0-7.5,6.4-24.5-0.3
		C313.2,275.9,302.3,262.9,313.7,247.6"/>
</g>
<g>
	<path class="st0" d="M1212.2,1626.6c0,0-4.3,10.6,4.9,12.1c9.2,1.6,6,15,6,15"/>
	<path class="st4" d="M1198.9,1593.2c15-3.6,21.2,8.6,21.1,15.5c-0.4,14.7-7.5,18.3-7.5,18.3l0,0c0,0-7.6,2.4-18.1-8
		C1189.6,1614.1,1185.6,1600.9,1198.9,1593.2"/>
</g>
<g>
	<path class="st0" d="M1221.2,913.8c0,0-8,6.4-1.5,11.7s-1.9,14.4-1.9,14.4"/>
	<path class="st4" d="M1225.6,881.8c13.3,3.8,12.8,16.1,9.7,21.5c-6.8,11.3-14,11-14,11l0,0c0,0-7-1.5-10.7-14.2
		C1209.1,894,1211.7,882,1225.6,881.8"/>
</g>
<g>
	<path class="st0" d="M1406.4,215.7c0,0,4.1,20.3,19.6,13.5c15.5-6.9,24.2,16.6,24.2,16.6"/>
	<path class="st4" d="M1352.8,178.3c19-20.5,40.7-8.2,47.6,2.3c14.1,22.7,6.9,35.2,6.9,35.2l0,0c0,0-9.1,11.2-35.4,6.1
		C1359.7,219.2,1340.5,203.4,1352.8,178.3"/>
</g>
<g>
	<path class="st0" d="M1782.5,2164.5c0,0-20.5,3.1-14.4,18.9c6.1,15.8-17.8,23.3-17.8,23.3"/>
	<path class="st2" d="M1822.4,2112.7c19.5,20,6.2,41-4.6,47.4c-23.3,13-35.5,5.2-35.5,5.2l0,0c0,0-10.7-9.7-4.4-35.6
		C1781.2,2117.6,1798,2099.2,1822.4,2112.7"/>
</g>
<g>
	<path class="st0" d="M2204.4,1585.8c0,0-12.4,8.4-3.5,16.8s-4.3,20.8-4.3,20.8"/>
	<path class="st2" d="M2214.2,1539.6c19,6.9,16.9,24.8,11.8,32.3c-11.1,15.8-21.5,14.5-21.5,14.5l0,0c0,0-10-3-14-21.8
		C2188.9,1555.6,2194,1538.4,2214.2,1539.6"/>
</g>
<g>
	<path class="st0" d="M813.2,1817c0,0-12.7,0.2-10.3,10.3s-12.7,12.7-12.7,12.7"/>
	<path class="st3" d="M841.6,1788.9c10.2,13.7,0.4,25.4-6.7,28.4c-15.2,6-22,0.3-22,0.3l0,0c0,0-5.7-6.7,0.3-22
		C816.2,1788.5,827.9,1778.7,841.6,1788.9"/>
</g>
<g>
	<path class="st0" d="M2054.8,1048.1c0,0-12.1,9.6-2.3,17.6c9.8,7.9-2.8,21.7-2.8,21.7"/>
	<path class="st4" d="M2061.4,999.8c20.1,5.7,19.3,24.2,14.6,32.4c-10.3,17.1-21,16.6-21,16.6l0,0c0,0-10.5-2.3-16.1-21.4
		C2036.5,1018.3,2040.5,1000.1,2061.4,999.8"/>
</g>
<g>
	<path class="st0" d="M1810.8,517.2c0,0-0.9,12.6,9.3,11.2c10.2-1.5,11.5,13.8,11.5,13.8"/>
	<path class="st3" d="M1785.3,486.3c14.6-8.9,25.3,1.9,27.6,9.2c4.6,15.7-1.7,21.9-1.7,21.9l0,0c0,0-7.2,5.1-21.8-2.3
		C1782.6,511.6,1773.9,499.1,1785.3,486.3"/>
</g>
<g>
	<path class="st0" d="M802.6,1239.6c0,0-8.1,7.9-0.3,13c7.7,5-0.4,16-0.4,16"/>
	<path class="st2" d="M803.7,1204c15,2.6,15.9,16.1,13.1,22.4c-6.2,13.2-14,13.7-14,13.7l0,0c0,0-7.8-0.8-13.3-14.3
		C787,1219.3,788.6,1205.8,803.7,1204"/>
</g>
<g>
	<path class="st0" d="M434.6,2142.5c0,0-5.1,14.1,7,15.7c12.1,1.6,8.6,19.4,8.6,19.4"/>
	<path class="st2" d="M415.6,2099.2c19.4-5.5,28.2,10.2,28.5,19.3c0.2,19.3-9,24.3-9,24.3l0,0c0,0-9.9,3.5-24.1-9.6
		C404.4,2127.1,398.5,2110.1,415.6,2099.2"/>
</g>
</svg>
