<svg width="24" height="24" viewBox="0 0 24 24" fill="none" xmlns="http://www.w3.org/2000/svg">
<path d="M13.276 10.9821C13.8686 10.7145 14.4468 10.399 15.0108 10.0358C15.5747 9.67264 16.1147 9.27121 16.6308 8.83154C16.9558 9.29032 17.1995 9.78734 17.362 10.3226C17.5245 10.8578 17.6153 11.4026 17.6344 11.957C16.908 11.7849 16.1912 11.6989 15.4839 11.6989C15.1971 11.6989 14.9008 11.7133 14.595 11.7419C14.2891 11.7706 13.9737 11.8232 13.6487 11.8996L13.4767 11.4409L13.276 10.9821ZM18.0072 0C18.8292 0 19.6033 0.157706 20.3297 0.473118C21.0562 0.78853 21.6918 1.21864 22.2366 1.76344C22.7814 2.30824 23.2115 2.94385 23.5269 3.67025C23.8423 4.39665 24 5.17085 24 5.99283V17.9785C24 18.8005 23.8423 19.5795 23.5269 20.3154C23.2115 21.0514 22.7814 21.6918 22.2366 22.2366C21.6918 22.7814 21.0562 23.2115 20.3297 23.5269C19.6033 23.8423 18.8292 24 18.0072 24H5.99283C5.17085 24 4.39665 23.8423 3.67025 23.5269C2.94385 23.2115 2.30824 22.7814 1.76344 22.2366C1.21864 21.6918 0.78853 21.0514 0.473118 20.3154C0.157706 19.5795 0 18.8005 0 17.9785V5.99283C0 5.17085 0.157706 4.39665 0.473118 3.67025C0.78853 2.94385 1.21864 2.30824 1.76344 1.76344C2.30824 1.21864 2.94385 0.78853 3.67025 0.473118C4.39665 0.157706 5.17085 0 5.99283 0H18.0072ZM12.0143 18.7527C12.9319 18.7527 13.8017 18.5759 14.6237 18.2222C15.4456 17.8686 16.1625 17.3859 16.7742 16.7742C17.3859 16.1625 17.8686 15.4456 18.2222 14.6237C18.5759 13.8017 18.7527 12.9223 18.7527 11.9857C18.7527 11.0681 18.5759 10.1983 18.2222 9.37634C17.8686 8.55436 17.3859 7.83751 16.7742 7.22581C16.1625 6.6141 15.4456 6.13142 14.6237 5.77778C13.8017 5.42413 12.9319 5.24731 12.0143 5.24731C11.0777 5.24731 10.1983 5.42413 9.37634 5.77778C8.55436 6.13142 7.83751 6.6141 7.22581 7.22581C6.6141 7.83751 6.13142 8.55436 5.77778 9.37634C5.42413 10.1983 5.24731 11.0681 5.24731 11.9857C5.24731 12.9223 5.42413 13.8017 5.77778 14.6237C6.13142 15.4456 6.6141 16.1625 7.22581 16.7742C7.83751 17.3859 8.55436 17.8686 9.37634 18.2222C10.1983 18.5759 11.0777 18.7527 12.0143 18.7527ZM14.0502 12.9606C14.5854 12.865 15.0633 12.8172 15.4839 12.8172C16.1912 12.8172 16.8698 12.9128 17.5197 13.1039C17.3668 13.8877 17.0562 14.6045 16.5878 15.2545C16.1195 15.9044 15.5412 16.4301 14.853 16.8315C14.7766 16.1625 14.6714 15.503 14.5376 14.853C14.4038 14.2031 14.2413 13.5723 14.0502 12.9606ZM15.914 7.97133C15.417 8.37276 14.9104 8.74074 14.3943 9.07527C13.8781 9.4098 13.3429 9.70131 12.7885 9.94982C12.4636 9.35723 12.1195 8.77897 11.7563 8.21505C11.3931 7.65114 10.9916 7.10155 10.552 6.56631C10.7814 6.50896 11.0155 6.46117 11.2545 6.42294C11.4934 6.38471 11.7467 6.36559 12.0143 6.36559C12.7407 6.36559 13.4385 6.50418 14.1075 6.78136C14.7766 7.05854 15.3787 7.4552 15.914 7.97133ZM8.74552 16.5735C9.24253 15.7706 9.84946 15.0872 10.5663 14.5233C11.2832 13.9594 12.0717 13.5341 12.9319 13.2473C13.3716 14.5663 13.6487 15.9235 13.7634 17.319C13.2091 17.5102 12.626 17.6057 12.0143 17.6057C10.7718 17.6057 9.6822 17.2616 8.74552 16.5735ZM12.5591 12.1864C11.6033 12.5114 10.724 12.9797 9.92115 13.5914C9.11828 14.2031 8.43967 14.9391 7.8853 15.7993C6.94863 14.8053 6.45161 13.6201 6.39427 12.2437C6.54719 12.2628 6.681 12.2724 6.7957 12.2724H7.16846C8.02867 12.2724 8.88411 12.2007 9.73477 12.0573C10.5854 11.914 11.4122 11.6894 12.2151 11.3835C12.2915 11.5173 12.3536 11.6511 12.4014 11.7849C12.4492 11.9188 12.5018 12.0526 12.5591 12.1864ZM11.7276 10.3799C10.2557 10.8961 8.73596 11.1541 7.16846 11.1541H6.78136L6.45161 11.1254C6.58542 10.2461 6.91517 9.44325 7.44086 8.71685C7.96655 7.99044 8.63082 7.41697 9.43369 6.99642C10.313 8.04779 11.0777 9.17563 11.7276 10.3799Z" fill="black"/>
</svg>
