<svg width="24" height="24" viewBox="0 0 24 24" fill="none" xmlns="http://www.w3.org/2000/svg">
<path d="M18.0072 0C18.8292 0 19.6033 0.157706 20.3297 0.473118C21.0562 0.78853 21.6918 1.21864 22.2366 1.76344C22.7814 2.30824 23.2115 2.94385 23.5269 3.67025C23.8423 4.39665 24 5.17085 24 5.99283V17.9785C24 18.8005 23.8423 19.5795 23.5269 20.3154C23.2115 21.0514 22.7814 21.6918 22.2366 22.2366C21.6918 22.7814 21.0562 23.2115 20.3297 23.5269C19.6033 23.8423 18.8292 24 18.0072 24H5.99283C5.17085 24 4.39665 23.8423 3.67025 23.5269C2.94385 23.2115 2.30824 22.7814 1.76344 22.2366C1.21864 21.6918 0.78853 21.0514 0.473118 20.3154C0.157706 19.5795 0 18.8005 0 17.9785V5.99283C0 5.17085 0.157706 4.39665 0.473118 3.67025C0.78853 2.94385 1.21864 2.30824 1.76344 1.76344C2.30824 1.21864 2.94385 0.78853 3.67025 0.473118C4.39665 0.157706 5.17085 0 5.99283 0H18.0072ZM8.25806 9.00358H5.24731V18.7527H8.25806V9.00358ZM6.76703 8.22939C7.16846 8.22939 7.51732 8.08602 7.81362 7.79928C8.10992 7.51254 8.25806 7.1589 8.25806 6.73835C8.25806 6.3178 8.10992 5.96416 7.81362 5.67742C7.51732 5.39068 7.16846 5.24731 6.76703 5.24731C6.34648 5.24731 5.98805 5.39068 5.69176 5.67742C5.39546 5.96416 5.24731 6.3178 5.24731 6.73835C5.24731 7.1589 5.39546 7.51254 5.69176 7.79928C5.98805 8.08602 6.34648 8.22939 6.76703 8.22939ZM18.7527 13.1039C18.7527 12.4158 18.5615 11.7419 18.1792 11.0824C17.7969 10.4229 17.2999 9.92115 16.6882 9.57706C16.1338 9.27121 15.4886 9.10872 14.7527 9.08961C14.0167 9.07049 13.3524 9.19474 12.7599 9.46237V9.00358H9.7491V18.7527H12.7599V12.7885L13.9928 12.1864C14.1458 12.1099 14.356 12.0717 14.6237 12.0717C14.8913 12.0717 15.092 12.1195 15.2258 12.2151C15.3405 12.2724 15.4552 12.3967 15.5699 12.5878C15.6846 12.779 15.7419 12.951 15.7419 13.1039V18.7527H18.7527V13.1039Z" fill="black"/>
</svg>
