<svg width="24" height="24" viewBox="0 0 24 24" fill="none" xmlns="http://www.w3.org/2000/svg">
<path d="M18.0072 0C18.8292 0 19.6033 0.157706 20.3297 0.473118C21.0562 0.78853 21.6918 1.21864 22.2366 1.76344C22.7814 2.30824 23.2115 2.94385 23.5269 3.67025C23.8423 4.39665 24 5.17085 24 5.99283V17.9785C24 18.8005 23.8423 19.5795 23.5269 20.3154C23.2115 21.0514 22.7814 21.6918 22.2366 22.2366C21.6918 22.7814 21.0562 23.2115 20.3297 23.5269C19.6033 23.8423 18.8292 24 18.0072 24H5.99283C5.17085 24 4.39665 23.8423 3.67025 23.5269C2.94385 23.2115 2.30824 22.7814 1.76344 22.2366C1.21864 21.6918 0.78853 21.0514 0.473118 20.3154C0.157706 19.5795 0 18.8005 0 17.9785V5.99283C0 5.17085 0.157706 4.39665 0.473118 3.67025C0.78853 2.94385 1.21864 2.30824 1.76344 1.76344C2.30824 1.21864 2.94385 0.78853 3.67025 0.473118C4.39665 0.157706 5.17085 0 5.99283 0H18.0072ZM5.24731 15.1398L8.86022 12.5591L5.24731 9.97849V15.1398ZM18.7527 16.2581L14.3656 13.1039L12.0143 14.7957L9.63441 13.1039L5.24731 16.2581V17.9785H18.7527V16.2581ZM18.7527 9.97849L15.1398 12.5591L18.7527 15.1398V9.97849ZM18.7527 5.99283H5.24731V7.74194L12.0143 12.5591L18.7527 7.74194V5.99283Z" fill="black"/>
</svg>
