<svg width="24" height="24" viewBox="0 0 24 24" fill="none" xmlns="http://www.w3.org/2000/svg">
<path d="M18.0072 0C18.8292 0 19.6033 0.157706 20.3297 0.473118C21.0562 0.78853 21.6918 1.21864 22.2366 1.76344C22.7814 2.30824 23.2115 2.94385 23.5269 3.67025C23.8423 4.39665 24 5.17085 24 5.99283V17.9785C24 18.8005 23.8423 19.5795 23.5269 20.3154C23.2115 21.0514 22.7814 21.6918 22.2366 22.2366C21.6918 22.7814 21.0562 23.2115 20.3297 23.5269C19.6033 23.8423 18.8292 24 18.0072 24H5.99283C5.17085 24 4.39665 23.8423 3.67025 23.5269C2.94385 23.2115 2.30824 22.7814 1.76344 22.2366C1.21864 21.6918 0.78853 21.0514 0.473118 20.3154C0.157706 19.5795 0 18.8005 0 17.9785V5.99283C0 5.17085 0.157706 4.39665 0.473118 3.67025C0.78853 2.94385 1.21864 2.30824 1.76344 1.76344C2.30824 1.21864 2.94385 0.78853 3.67025 0.473118C4.39665 0.157706 5.17085 0 5.99283 0H18.0072ZM19.7276 15.8566C20.129 15.0346 20.3297 13.9355 20.3297 12.5591C20.3297 10.9916 19.8805 9.67264 18.9821 8.60215C19.1541 8.06691 19.2401 7.51254 19.2401 6.93907C19.2401 6.17443 19.0681 5.44803 18.724 4.75986C17.9976 4.75986 17.3763 4.88411 16.8602 5.13262C16.2867 5.40024 15.6655 5.80167 14.9964 6.33692C14.5568 6.24134 14.1075 6.16487 13.6487 6.10753C13.19 6.05018 12.7121 6.02151 12.2151 6.02151C11.1446 6.02151 10.1219 6.1362 9.14695 6.36559C8.42055 5.83035 7.78973 5.42891 7.25448 5.16129C6.73835 4.89367 6.10753 4.75986 5.36201 4.75986C5.01792 5.44803 4.84588 6.17443 4.84588 6.93907C4.84588 7.22581 4.86977 7.50777 4.91756 7.78495C4.96535 8.06213 5.03704 8.33453 5.13262 8.60215C4.23417 9.63441 3.78495 10.9534 3.78495 12.5591C3.78495 13.9355 3.98566 15.0346 4.3871 15.8566C4.71207 16.5257 5.18996 17.0562 5.82079 17.448C6.45161 17.8399 7.11111 18.1219 7.79928 18.2939C8.2963 18.4468 8.80287 18.552 9.319 18.6093C9.60573 18.6476 9.87336 18.6762 10.1219 18.6953C10.3704 18.7145 10.5998 18.724 10.81 18.724C11.0203 18.7431 11.2401 18.7527 11.4695 18.7527H13.0753L13.8781 18.724C14.1266 18.7049 14.3895 18.6762 14.6667 18.638C14.9438 18.5998 15.2449 18.552 15.5699 18.4946C16.2389 18.3799 16.8029 18.227 17.2616 18.0358C17.7587 17.8256 18.227 17.5341 18.6667 17.1613C19.1063 16.7885 19.46 16.3536 19.7276 15.8566ZM15.5412 11.3262C16.3441 11.3262 16.9654 11.6033 17.405 12.1577C17.8638 12.7121 18.0932 13.3907 18.0932 14.1935C18.0932 14.767 17.9881 15.2688 17.7778 15.6989C17.5675 16.129 17.2999 16.4779 16.9749 16.7455C16.6308 16.994 16.2294 17.1852 15.7706 17.319C15.2736 17.4719 14.8053 17.5723 14.3656 17.6201C13.9259 17.6679 13.4289 17.6918 12.8746 17.6918H11.2115C10.6571 17.6918 10.1649 17.6679 9.73477 17.6201C9.30466 17.5723 8.8411 17.4719 8.34409 17.319C7.8853 17.1852 7.48387 16.994 7.13978 16.7455C6.81481 16.4779 6.54241 16.129 6.32258 15.6989C6.10275 15.2688 5.99283 14.767 5.99283 14.1935C5.99283 13.3907 6.22222 12.7121 6.681 12.1577C7.12067 11.6033 7.74194 11.3262 8.5448 11.3262C8.69773 11.3262 8.93668 11.3405 9.26165 11.3692C9.58662 11.3978 9.99761 11.4504 10.4946 11.5269C10.724 11.5651 10.9677 11.5938 11.2258 11.6129C11.4839 11.632 11.7563 11.6416 12.043 11.6416C12.3297 11.6416 12.6022 11.632 12.8602 11.6129C13.1183 11.5938 13.3716 11.5651 13.6201 11.5269C14.1171 11.4504 14.5281 11.3978 14.853 11.3692C15.178 11.3405 15.4074 11.3262 15.5412 11.3262ZM9.57706 15.7419C9.88292 15.3978 10.0597 15.0155 10.1075 14.595C10.1553 14.1744 10.1219 13.7634 10.0072 13.362C9.9307 13.0944 9.79211 12.8459 9.5914 12.6165C9.39068 12.3871 9.14695 12.2724 8.86022 12.2724C8.57348 12.2724 8.33453 12.3871 8.14337 12.6165C7.83751 12.9606 7.66069 13.3429 7.6129 13.7634C7.56511 14.184 7.59857 14.595 7.71326 14.9964C7.80884 15.264 7.95699 15.5125 8.15771 15.7419C8.35842 15.9713 8.59259 16.086 8.86022 16.086C9.12784 16.086 9.36679 15.9713 9.57706 15.7419ZM15.9427 15.7419C16.2485 15.3978 16.4253 15.0155 16.4731 14.595C16.5209 14.1744 16.4875 13.7634 16.3728 13.362C16.2963 13.0944 16.1577 12.8459 15.957 12.6165C15.7563 12.3871 15.5125 12.2724 15.2258 12.2724C14.9391 12.2724 14.7001 12.3871 14.509 12.6165C14.2031 12.9606 14.0263 13.3429 13.9785 13.7634C13.9307 14.184 13.9642 14.595 14.0789 14.9964C14.1744 15.264 14.3226 15.5125 14.5233 15.7419C14.724 15.9713 14.9582 16.086 15.2258 16.086C15.4934 16.086 15.7324 15.9713 15.9427 15.7419Z" fill="black"/>
</svg>
