<svg width="24" height="24" viewBox="0 0 24 24" fill="none" xmlns="http://www.w3.org/2000/svg">
<mask id="mask0_2382_7" style="mask-type:alpha" maskUnits="userSpaceOnUse" x="0" y="0" width="24" height="24">
<rect width="24" height="24" fill="#D9D9D9"/>
</mask>
<g mask="url(#mask0_2382_7)">
<path d="M12 22C10.6167 22 9.31667 21.7375 8.1 21.2125C6.88333 20.6875 5.825 19.975 4.925 19.075C4.025 18.175 3.3125 17.1167 2.7875 15.9C2.2625 14.6833 2 13.3833 2 12C2 10.6167 2.2625 9.31667 2.7875 8.1C3.3125 6.88333 4.025 5.825 4.925 4.925C5.825 4.025 6.88333 3.3125 8.1 2.7875C9.31667 2.2625 10.6167 2 12 2C12.8 2 13.5792 2.09167 14.3375 2.275C15.0958 2.45833 15.825 2.725 16.525 3.075C16.775 3.20833 16.9375 3.40833 17.0125 3.675C17.0875 3.94167 17.0417 4.19167 16.875 4.425C16.7083 4.65833 16.4875 4.80833 16.2125 4.875C15.9375 4.94167 15.6667 4.90833 15.4 4.775C14.8667 4.525 14.3125 4.33333 13.7375 4.2C13.1625 4.06667 12.5833 4 12 4C9.76667 4 7.875 4.775 6.325 6.325C4.775 7.875 4 9.76667 4 12C4 14.2333 4.775 16.125 6.325 17.675C7.875 19.225 9.76667 20 12 20C12.4333 20 12.8583 19.9667 13.275 19.9C13.6917 19.8333 14.1083 19.7333 14.525 19.6C14.8083 19.5167 15.0833 19.5125 15.35 19.5875C15.6167 19.6625 15.825 19.825 15.975 20.075C16.1083 20.3083 16.1375 20.5583 16.0625 20.825C15.9875 21.0917 15.8167 21.275 15.55 21.375C14.9833 21.5917 14.4 21.75 13.8 21.85C13.2 21.95 12.6 22 12 22ZM19 17H17C16.7167 17 16.4792 16.9042 16.2875 16.7125C16.0958 16.5208 16 16.2833 16 16C16 15.7167 16.0958 15.4792 16.2875 15.2875C16.4792 15.0958 16.7167 15 17 15H19V13C19 12.7167 19.0958 12.4792 19.2875 12.2875C19.4792 12.0958 19.7167 12 20 12C20.2833 12 20.5208 12.0958 20.7125 12.2875C20.9042 12.4792 21 12.7167 21 13V15H23C23.2833 15 23.5208 15.0958 23.7125 15.2875C23.9042 15.4792 24 15.7167 24 16C24 16.2833 23.9042 16.5208 23.7125 16.7125C23.5208 16.9042 23.2833 17 23 17H21V19C21 19.2833 20.9042 19.5208 20.7125 19.7125C20.5208 19.9042 20.2833 20 20 20C19.7167 20 19.4792 19.9042 19.2875 19.7125C19.0958 19.5208 19 19.2833 19 19V17ZM10.6 13.8L19.9 4.475C20.0833 4.29167 20.3167 4.2 20.6 4.2C20.8833 4.2 21.1167 4.29167 21.3 4.475C21.4833 4.65833 21.575 4.89167 21.575 5.175C21.575 5.45833 21.4833 5.69167 21.3 5.875L11.3 15.9C11.1 16.1 10.8667 16.2 10.6 16.2C10.3333 16.2 10.1 16.1 9.9 15.9L7.05 13.05C6.86667 12.8667 6.775 12.6333 6.775 12.35C6.775 12.0667 6.86667 11.8333 7.05 11.65C7.23333 11.4667 7.46667 11.375 7.75 11.375C8.03333 11.375 8.26667 11.4667 8.45 11.65L10.6 13.8Z" fill="#328636"/>
</g>
</svg>
